<svg xmlns="http://www.w3.org/2000/svg" width="1800" height="1000" viewBox="0 0 1800 1000" role="img" aria-labelledby="title desc">
  <title id="title">Developer Process for Resolving a Ticket</title>
  <desc id="desc">Detailed DUUMBI developer process infographic from idea or bug report to post-merge closure, balancing AI automation and human decisions.</desc>
  <defs>
    <style>
      .bg { fill: #fbfcff; }
      .title { font: 800 50px -apple-system, BlinkMacSystemFont, "Segoe UI", sans-serif; fill: #0f172a; }
      .subtitle { font: 450 28px -apple-system, BlinkMacSystemFont, "Segoe UI", sans-serif; fill: #334155; }
      .card { fill: #fff; stroke-width: 1.7; }
      .c1 { stroke: #2563eb; }
      .c2 { stroke: #16a34a; }
      .c3 { stroke: #2563eb; }
      .c4 { stroke: #d97706; }
      .c5 { stroke: #2563eb; }
      .c6 { stroke: #dc2626; }
      .c7 { stroke: #16a34a; }
      .n { font: 800 28px -apple-system, BlinkMacSystemFont, "Segoe UI", sans-serif; fill: #fff; }
      .head { font: 790 22px -apple-system, BlinkMacSystemFont, "Segoe UI", sans-serif; text-anchor: middle; }
      .head-small { font: 780 20px -apple-system, BlinkMacSystemFont, "Segoe UI", sans-serif; text-anchor: middle; }
      .body { font: 500 16px -apple-system, BlinkMacSystemFont, "Segoe UI", sans-serif; fill: #172033; }
      .small { font: 500 14px -apple-system, BlinkMacSystemFont, "Segoe UI", sans-serif; fill: #172033; }
      .tiny { font: 650 11px -apple-system, BlinkMacSystemFont, "Segoe UI", sans-serif; fill: #0f172a; }
      .label { font: 740 14px -apple-system, BlinkMacSystemFont, "Segoe UI", sans-serif; text-anchor: middle; }
      .status { font: 800 13px -apple-system, BlinkMacSystemFont, "Segoe UI", sans-serif; text-anchor: middle; }
      .divider { stroke: #cbd5e1; stroke-width: 1.3; stroke-dasharray: 4 4; }
      .arrow { stroke: #475569; stroke-width: 4; fill: none; }
      .dash-arrow { stroke: #64748b; stroke-width: 2; stroke-dasharray: 7 6; fill: none; }
      .side-head { font: 800 24px -apple-system, BlinkMacSystemFont, "Segoe UI", sans-serif; fill: #fff; }
      .side-text { font: 500 15px -apple-system, BlinkMacSystemFont, "Segoe UI", sans-serif; fill: #0f172a; }
      .bottom-title { font: 800 29px -apple-system, BlinkMacSystemFont, "Segoe UI", sans-serif; fill: #08245c; text-anchor: middle; }
      .bottom-bold { font: 800 28px -apple-system, BlinkMacSystemFont, "Segoe UI", sans-serif; }
      .bottom-body { font: 500 25px -apple-system, BlinkMacSystemFont, "Segoe UI", sans-serif; fill: #0f172a; }
    </style>
    <marker id="arrow" markerWidth="12" markerHeight="12" refX="9" refY="6" orient="auto" markerUnits="strokeWidth">
      <path d="M1,1 L10,6 L1,11 Z" fill="#475569"/>
    </marker>
    <marker id="dashArrow" markerWidth="10" markerHeight="10" refX="8" refY="5" orient="auto" markerUnits="strokeWidth">
      <path d="M1,1 L9,5 L1,9 Z" fill="#64748b"/>
    </marker>
    <filter id="softShadow" x="-10%" y="-10%" width="120%" height="120%">
      <feDropShadow dx="0" dy="2" stdDeviation="2" flood-color="#94a3b8" flood-opacity=".18"/>
    </filter>
  </defs>

  <rect class="bg" width="1800" height="1000"/>
  <text class="title" x="28" y="66">Developer Process for Resolving a Ticket</text>
  <text class="subtitle" x="30" y="124">From idea or bug report to post-merge closure</text>

  <g id="stage-1" transform="translate(28 242)">
    <rect class="card c1" width="182" height="578" rx="7" filter="url(#softShadow)"/>
    <circle cx="91" cy="-9" r="22" fill="#0b72cf"/><text class="n" x="91" y="1" text-anchor="middle">1</text>
    <text class="head" x="91" y="46" fill="#004fb5">Idea or</text>
    <text class="head" x="91" y="75" fill="#004fb5">bug report</text>
    <g transform="translate(22 97)">
      <rect x="0" y="0" width="60" height="58" rx="6" fill="#fff" stroke="#d6dde8"/>
      <g transform="translate(12 11) scale(1.5)">
        <path fill="#4A154B" d="M5.042 15.165a2.528 2.528 0 0 1-2.52 2.523A2.528 2.528 0 0 1 0 15.165a2.527 2.527 0 0 1 2.522-2.52h2.52v2.52zM6.313 15.165a2.527 2.527 0 0 1 2.521-2.52 2.527 2.527 0 0 1 2.521 2.52v6.313A2.528 2.528 0 0 1 8.834 24a2.528 2.528 0 0 1-2.521-2.522v-6.313zM8.834 5.042a2.528 2.528 0 0 1-2.521-2.52A2.528 2.528 0 0 1 8.834 0a2.528 2.528 0 0 1 2.521 2.522v2.52H8.834zM8.834 6.313a2.528 2.528 0 0 1 2.521 2.521 2.528 2.528 0 0 1-2.521 2.521H2.522A2.528 2.528 0 0 1 0 8.834a2.528 2.528 0 0 1 2.522-2.521h6.312zM18.956 8.834a2.528 2.528 0 0 1 2.522-2.521A2.528 2.528 0 0 1 24 8.834a2.528 2.528 0 0 1-2.522 2.521h-2.522V8.834zM17.688 8.834a2.528 2.528 0 0 1-2.523 2.521 2.527 2.527 0 0 1-2.52-2.521V2.522A2.527 2.527 0 0 1 15.165 0a2.528 2.528 0 0 1 2.523 2.522v6.312zM15.165 18.956a2.528 2.528 0 0 1 2.523 2.522A2.528 2.528 0 0 1 15.165 24a2.527 2.527 0 0 1-2.52-2.522v-2.522h2.52zM15.165 17.688a2.527 2.527 0 0 1-2.52-2.523 2.526 2.526 0 0 1 2.52-2.52h6.313A2.527 2.527 0 0 1 24 15.165a2.528 2.528 0 0 1-2.522 2.523h-6.313z"/>
      </g>
      <rect x="76" y="0" width="60" height="58" rx="6" fill="#fff" stroke="#d6dde8"/>
      <g transform="translate(88 11) scale(1.5)">
        <path fill="#111827" d="M22.2819 9.8211a5.9847 5.9847 0 0 0-.5157-4.9108 6.0462 6.0462 0 0 0-6.5098-2.9A6.0651 6.0651 0 0 0 4.9807 4.1818a5.9847 5.9847 0 0 0-3.9977 2.9 6.0462 6.0462 0 0 0 .7427 7.0966 5.98 5.98 0 0 0 .511 4.9107 6.051 6.051 0 0 0 6.5146 2.9001A5.9847 5.9847 0 0 0 13.2599 24a6.0557 6.0557 0 0 0 5.7718-4.2058 5.9894 5.9894 0 0 0 3.9977-2.9001 6.0557 6.0557 0 0 0-.7475-7.0729zm-9.022 12.6081a4.4755 4.4755 0 0 1-2.8764-1.0408l.1419-.0804 4.7783-2.7582a.7948.7948 0 0 0 .3927-.6813v-6.7369l2.02 1.1686a.071.071 0 0 1 .038.052v5.5826a4.504 4.504 0 0 1-4.4945 4.4944zm-9.6607-4.1254a4.4708 4.4708 0 0 1-.5346-3.0137l.142.0852 4.783 2.7582a.7712.7712 0 0 0 .7806 0l5.8428-3.3685v2.3324a.0804.0804 0 0 1-.0332.0615L9.74 19.9502a4.4992 4.4992 0 0 1-6.1408-1.6464zM2.3408 7.8956a4.485 4.485 0 0 1 2.3655-1.9728V11.6a.7664.7664 0 0 0 .3879.6765l5.8144 3.3543-2.0201 1.1685a.0757.0757 0 0 1-.071 0l-4.8303-2.7865A4.504 4.504 0 0 1 2.3408 7.872zm16.5963 3.8558L13.1038 8.364 15.1192 7.2a.0757.0757 0 0 1 .071 0l4.8303 2.7913a4.4944 4.4944 0 0 1-.6765 8.1042v-5.6772a.79.79 0 0 0-.407-.667zm2.0107-3.0231l-.142-.0852-4.7735-2.7818a.7759.7759 0 0 0-.7854 0L9.409 9.2297V6.8974a.0662.0662 0 0 1 .0284-.0615l4.8303-2.7866a4.4992 4.4992 0 0 1 6.6802 4.66zM8.3065 12.863l-2.02-1.1638a.0804.0804 0 0 1-.038-.0567V6.0742a4.4992 4.4992 0 0 1 7.3757-3.4537l-.142.0805L8.704 5.459a.7948.7948 0 0 0-.3927.6813zm1.0976-2.3654l2.602-1.4998 2.6069 1.4998v2.9994l-2.5974 1.4997-2.6067-1.4997Z"/>
      </g>
      <rect x="0" y="68" width="60" height="58" rx="6" fill="#fff" stroke="#d6dde8"/>
      <g transform="translate(12 79) scale(1.5)">
        <path fill="#181717" d="M12 .297c-6.63 0-12 5.373-12 12 0 5.303 3.438 9.8 8.205 11.385.6.113.82-.258.82-.577 0-.285-.01-1.04-.015-2.04-3.338.724-4.042-1.61-4.042-1.61C4.422 18.07 3.633 17.7 3.633 17.7c-1.087-.744.084-.729.084-.729 1.205.084 1.838 1.236 1.838 1.236 1.07 1.835 2.809 1.305 3.495.998.108-.776.417-1.305.76-1.605-2.665-.3-5.466-1.332-5.466-5.93 0-1.31.465-2.38 1.235-3.22-.135-.303-.54-1.523.105-3.176 0 0 1.005-.322 3.3 1.23.96-.267 1.98-.399 3-.405 1.02.006 2.04.138 3 .405 2.28-1.552 3.285-1.23 3.285-1.23.645 1.653.24 2.873.12 3.176.765.84 1.23 1.91 1.23 3.22 0 4.61-2.805 5.625-5.475 5.92.42.36.81 1.096.81 2.22 0 1.606-.015 2.896-.015 3.286 0 .315.21.69.825.57C20.565 22.092 24 17.592 24 12.297c0-6.627-5.373-12-12-12"/>
      </g>
      <rect x="76" y="68" width="60" height="58" rx="6" fill="#fff" stroke="#d6dde8"/>
      <g transform="translate(88 79) scale(1.5)">
        <path fill="#7C3AED" d="M19.355 18.538a68.967 68.959 0 0 0 1.858-2.954.81.81 0 0 0-.062-.9c-.516-.685-1.504-2.075-2.042-3.362-.553-1.321-.636-3.375-.64-4.377a1.707 1.707 0 0 0-.358-1.05l-3.198-4.064a3.744 3.744 0 0 1-.076.543c-.106.503-.307 1.004-.536 1.5-.134.29-.29.6-.446.914l-.31.626c-.516 1.068-.997 2.227-1.132 3.59-.124 1.26.046 2.73.815 4.481.128.011.257.025.386.044a6.363 6.363 0 0 1 3.326 1.505c.916.79 1.744 1.922 2.415 3.5zM8.199 22.569c.073.012.146.02.22.02.78.024 2.095.092 3.16.29.87.16 2.593.64 4.01 1.055 1.083.316 2.198-.548 2.355-1.664.114-.814.33-1.735.725-2.58l-.01.005c-.67-1.87-1.522-3.078-2.416-3.849a5.295 5.295 0 0 0-2.778-1.257c-1.54-.216-2.952.19-3.84.45.532 2.218.368 4.829-1.425 7.531zM5.533 9.938c-.023.1-.056.197-.098.29L2.82 16.059a1.602 1.602 0 0 0 .313 1.772l4.116 4.24c2.103-3.101 1.796-6.02.836-8.3-.728-1.73-1.832-3.081-2.55-3.831zM9.32 14.01c.615-.183 1.606-.465 2.745-.534-.683-1.725-.848-3.233-.716-4.577.154-1.552.7-2.847 1.235-3.95.113-.235.223-.454.328-.664.149-.297.288-.577.419-.86.217-.47.379-.885.46-1.27.08-.38.08-.72-.014-1.043-.095-.325-.297-.675-.68-1.06a1.6 1.6 0 0 0-1.475.36l-4.95 4.452a1.602 1.602 0 0 0-.513.952l-.427 2.83c.672.59 2.328 2.316 3.335 4.711.09.21.175.43.253.653z"/>
      </g>
    </g>
    <text class="body" x="91" y="257" text-anchor="middle">Slack, Codex,</text>
    <text class="body" x="91" y="281" text-anchor="middle">GitHub Issue,</text>
    <text class="body" x="91" y="305" text-anchor="middle">Obsidian Inbox</text>
    <line class="divider" x1="12" y1="332" x2="170" y2="332"/>
    <g transform="translate(14 352)">
      <circle cx="11" cy="0" r="8" fill="#0b72cf"/><path d="M7 -1 L10 3 L16 -5" fill="none" stroke="#fff" stroke-width="3"/>
      <text class="small" x="30" y="4">Problem or idea</text><text class="small" x="30" y="23">recorded</text>
      <circle cx="11" cy="51" r="8" fill="#0b72cf"/><path d="M7 50 L10 54 L16 46" fill="none" stroke="#fff" stroke-width="3"/>
      <text class="small" x="30" y="55">Description, context,</text><text class="small" x="30" y="74">priority if known</text>
      <circle cx="11" cy="102" r="8" fill="#0b72cf"/><path d="M7 101 L10 105 L16 97" fill="none" stroke="#fff" stroke-width="3"/>
      <text class="small" x="30" y="106">Captured into Inbox</text>
    </g>
    <rect x="13" y="523" width="156" height="35" rx="7" fill="#eff6ff" stroke="#0b72cf"/>
    <text class="status" x="91" y="546" fill="#0b72cf">RECEIVED</text>
  </g>

  <path class="arrow" d="M205 395 L236 395" marker-end="url(#arrow)"/>

  <g id="stage-2" transform="translate(240 242)">
    <rect class="card c2" width="182" height="578" rx="7" filter="url(#softShadow)"/>
    <circle cx="91" cy="-9" r="22" fill="#16a34a"/><text class="n" x="91" y="1" text-anchor="middle">2</text>
    <text class="head" x="91" y="42" fill="#087334">Triage &amp;</text>
    <text class="head-small" x="91" y="69" fill="#087334">human</text>
    <text class="head-small" x="91" y="96" fill="#087334">acceptance</text>
    <g transform="translate(52 96)">
      <rect x="0" y="16" width="64" height="94" rx="5" fill="#eef2f7" stroke="#1f2937" stroke-width="5"/>
      <rect x="19" y="0" width="28" height="20" rx="8" fill="#4b5563"/>
      <path d="M15 45 L23 53 L37 35" fill="none" stroke="#16a34a" stroke-width="3"/>
      <path d="M15 70 L23 78 L37 60" fill="none" stroke="#16a34a" stroke-width="3"/>
      <path d="M15 95 L23 103 L37 85" fill="none" stroke="#16a34a" stroke-width="3"/>
      <line x1="45" y1="43" x2="70" y2="43" stroke="#94a3b8" stroke-width="4"/>
      <line x1="45" y1="68" x2="70" y2="68" stroke="#94a3b8" stroke-width="4"/>
      <line x1="45" y1="93" x2="70" y2="93" stroke="#94a3b8" stroke-width="4"/>
      <circle cx="76" cy="100" r="22" fill="none" stroke="#64748b" stroke-width="6"/>
      <line x1="91" y1="115" x2="112" y2="136" stroke="#64748b" stroke-width="8" stroke-linecap="round"/>
    </g>
    <text class="body" x="91" y="257" text-anchor="middle">Duplicate check,</text>
    <text class="body" x="91" y="281" text-anchor="middle">clarification, value,</text>
    <text class="body" x="91" y="305" text-anchor="middle">scope</text>
    <line class="divider" x1="12" y1="332" x2="170" y2="332"/>
    <g transform="translate(14 352)">
      <circle cx="11" cy="0" r="8" fill="#16a34a"/><path d="M7 -1 L10 3 L16 -5" fill="none" stroke="#fff" stroke-width="3"/>
      <text class="small" x="30" y="4">Duplicate check</text>
      <circle cx="11" cy="32" r="8" fill="#16a34a"/><path d="M7 31 L10 35 L16 27" fill="none" stroke="#fff" stroke-width="3"/>
      <text class="small" x="30" y="36">Clarification request</text>
      <circle cx="11" cy="64" r="8" fill="#16a34a"/><path d="M7 63 L10 67 L16 59" fill="none" stroke="#fff" stroke-width="3"/>
      <text class="small" x="30" y="68">Value and priority</text>
      <circle cx="11" cy="96" r="8" fill="#16a34a"/><path d="M7 95 L10 99 L16 91" fill="none" stroke="#fff" stroke-width="3"/>
      <text class="small" x="30" y="100">Scope proposal</text>
      <circle cx="11" cy="128" r="8" fill="#16a34a"/><path d="M7 127 L10 131 L16 123" fill="none" stroke="#fff" stroke-width="3"/>
      <text class="small" x="30" y="132">Accepted to backlog</text>
    </g>
    <rect x="13" y="523" width="156" height="35" rx="7" fill="#ecfdf5" stroke="#16a34a"/>
    <text class="status" x="91" y="546" fill="#087334">ACCEPTED</text>
  </g>

  <path class="arrow" d="M417 395 L448 395" marker-end="url(#arrow)"/>

  <g id="stage-3" transform="translate(452 242)">
    <rect class="card c3" width="188" height="578" rx="7" filter="url(#softShadow)"/>
    <circle cx="94" cy="-9" r="22" fill="#0b72cf"/><text class="n" x="94" y="1" text-anchor="middle">3</text>
    <text class="head" x="94" y="46" fill="#004fb5">Product &amp;</text>
    <text class="head" x="94" y="75" fill="#004fb5">technical spec</text>
    <text class="head-small" x="94" y="102" fill="#004fb5">documents</text>
    <g transform="translate(18 126)">
      <path d="M0 0 H49 L70 21 V112 H0 Z" fill="#fff" stroke="#1f2937" stroke-width="2"/>
      <path d="M49 0 V21 H70" fill="none" stroke="#1f2937" stroke-width="2"/>
      <line x1="12" y1="34" x2="51" y2="34" stroke="#64748b" stroke-width="2"/>
      <line x1="12" y1="54" x2="58" y2="54" stroke="#64748b" stroke-width="2"/>
      <line x1="12" y1="74" x2="52" y2="74" stroke="#64748b" stroke-width="2"/>
      <line x1="12" y1="94" x2="58" y2="94" stroke="#64748b" stroke-width="2"/>
      <path d="M83 0 H132 L153 21 V112 H83 Z" fill="#fff" stroke="#1f2937" stroke-width="2"/>
      <path d="M132 0 V21 H153" fill="none" stroke="#1f2937" stroke-width="2"/>
      <line x1="95" y1="34" x2="134" y2="34" stroke="#64748b" stroke-width="2"/>
      <line x1="95" y1="54" x2="141" y2="54" stroke="#64748b" stroke-width="2"/>
      <line x1="95" y1="74" x2="135" y2="74" stroke="#64748b" stroke-width="2"/>
      <line x1="95" y1="94" x2="141" y2="94" stroke="#64748b" stroke-width="2"/>
    </g>
    <text class="body" x="94" y="257" text-anchor="middle">PRODUCT.md,</text>
    <text class="body" x="94" y="281" text-anchor="middle">TECHNICAL.md,</text>
    <text class="body" x="94" y="305" text-anchor="middle">review gate</text>
    <line class="divider" x1="12" y1="332" x2="176" y2="332"/>
    <g transform="translate(14 352)">
      <circle cx="11" cy="0" r="8" fill="#0b72cf"/><path d="M7 -1 L10 3 L16 -5" fill="none" stroke="#fff" stroke-width="3"/>
      <text class="small" x="30" y="4">Product need recorded</text>
      <circle cx="11" cy="32" r="8" fill="#0b72cf"/><path d="M7 31 L10 35 L16 27" fill="none" stroke="#fff" stroke-width="3"/>
      <text class="small" x="30" y="36">Technical plan</text>
      <circle cx="11" cy="64" r="8" fill="#0b72cf"/><path d="M7 63 L10 67 L16 59" fill="none" stroke="#fff" stroke-width="3"/>
      <text class="small" x="30" y="68">Acceptance criteria</text>
      <circle cx="11" cy="96" r="8" fill="#0b72cf"/><path d="M7 95 L10 99 L16 91" fill="none" stroke="#fff" stroke-width="3"/>
      <text class="small" x="30" y="100">Review gate, human</text>
    </g>
    <rect x="17" y="523" width="154" height="35" rx="7" fill="#eff6ff" stroke="#0b72cf"/>
    <text class="status" x="94" y="546" fill="#004fb5">SPEC READY</text>
  </g>

  <path class="arrow" d="M635 395 L660 395" marker-end="url(#arrow)"/>

  <g id="stage-4" transform="translate(664 242)">
    <rect class="card c4" width="192" height="578" rx="7" filter="url(#softShadow)"/>
    <circle cx="96" cy="-9" r="22" fill="#d97706"/><text class="n" x="96" y="1" text-anchor="middle">4</text>
    <text class="head" x="96" y="46" fill="#c45f00">Implementation</text>
    <text class="head-small" x="96" y="75" fill="#c45f00">in Ralph cycles</text>
    <g transform="translate(33 103)">
      <circle cx="63" cy="63" r="39" fill="#1f2937"/>
      <text x="63" y="55" text-anchor="middle" style="font:800 13px -apple-system,BlinkMacSystemFont,'Segoe UI',sans-serif;fill:#fff">RALPH</text>
      <text x="63" y="73" text-anchor="middle" style="font:800 13px -apple-system,BlinkMacSystemFont,'Segoe UI',sans-serif;fill:#fff">CYCLE</text>
      <path d="M10 64 C10 30 35 8 67 7" fill="none" stroke="#111827" stroke-width="3" marker-end="url(#arrow)"/>
      <path d="M76 7 C108 12 122 40 113 70" fill="none" stroke="#111827" stroke-width="3" marker-end="url(#arrow)"/>
      <path d="M112 82 C97 113 59 122 31 102" fill="none" stroke="#111827" stroke-width="3" marker-end="url(#arrow)"/>
      <path d="M24 94 C3 72 2 42 18 21" fill="none" stroke="#111827" stroke-width="3" marker-end="url(#arrow)"/>
      <rect x="38" y="-2" width="51" height="25" rx="12" fill="#fff7ed" stroke="#d97706"/><text class="tiny" x="63" y="15" text-anchor="middle" fill="#c45f00">PLAN</text>
      <rect x="-6" y="57" width="58" height="25" rx="12" fill="#fff7ed" stroke="#d97706"/><text class="tiny" x="23" y="74" text-anchor="middle" fill="#c45f00">PROVE</text>
      <rect x="86" y="57" width="58" height="25" rx="12" fill="#fff7ed" stroke="#d97706"/><text class="tiny" x="115" y="74" text-anchor="middle" fill="#c45f00">CODE</text>
      <rect x="40" y="109" width="58" height="25" rx="12" fill="#fff7ed" stroke="#d97706"/><text class="tiny" x="69" y="126" text-anchor="middle" fill="#c45f00">TEST</text>
    </g>
    <text class="body" x="96" y="257" text-anchor="middle">Small scope, evidence,</text>
    <text class="body" x="96" y="281" text-anchor="middle">tests, resource gate</text>
    <line class="divider" x1="12" y1="332" x2="180" y2="332"/>
    <g transform="translate(14 352)">
      <circle cx="11" cy="0" r="8" fill="#d97706"/><path d="M7 -1 L10 3 L16 -5" fill="none" stroke="#fff" stroke-width="3"/>
      <text class="small" x="30" y="4">Break into small scope</text>
      <circle cx="11" cy="32" r="8" fill="#d97706"/><path d="M7 31 L10 35 L16 27" fill="none" stroke="#fff" stroke-width="3"/>
      <text class="small" x="30" y="36">Implementation</text>
      <circle cx="11" cy="64" r="8" fill="#d97706"/><path d="M7 63 L10 67 L16 59" fill="none" stroke="#fff" stroke-width="3"/>
      <text class="small" x="30" y="68">Tests and evidence</text>
      <circle cx="11" cy="96" r="8" fill="#d97706"/><path d="M7 95 L10 99 L16 91" fill="none" stroke="#fff" stroke-width="3"/>
      <text class="small" x="30" y="100">Resource gate check</text>
      <circle cx="11" cy="128" r="8" fill="#d97706"/><path d="M7 127 L10 131 L16 123" fill="none" stroke="#fff" stroke-width="3"/>
      <text class="small" x="30" y="132">Iterate to ready state</text>
    </g>
    <rect x="16" y="523" width="160" height="35" rx="7" fill="#fff7ed" stroke="#d97706"/>
    <text class="status" x="96" y="546" fill="#c45f00">IMPLEMENTED</text>
  </g>

  <path class="arrow" d="M852 395 L872 395" marker-end="url(#arrow)"/>

  <g id="stage-5" transform="translate(876 242)">
    <rect class="card c5" width="172" height="578" rx="7" filter="url(#softShadow)"/>
    <circle cx="86" cy="-9" r="22" fill="#0b72cf"/><text class="n" x="86" y="1" text-anchor="middle">5</text>
    <text class="head" x="86" y="46" fill="#004fb5">Stage 11</text>
    <text class="head-small" x="86" y="75" fill="#004fb5">review artifact</text>
    <g transform="translate(14 108)">
      <rect x="0" y="0" width="144" height="124" rx="5" fill="#f8fafc" stroke="#1f2937" stroke-width="2"/>
      <rect x="0" y="0" width="144" height="23" rx="5" fill="#334155"/>
      <circle cx="13" cy="12" r="4" fill="#e2e8f0"/><circle cx="27" cy="12" r="4" fill="#e2e8f0"/><circle cx="41" cy="12" r="4" fill="#e2e8f0"/>
      <rect x="17" y="40" width="110" height="17" fill="#ecfdf5"/><line x1="43" y1="48" x2="83" y2="48" stroke="#16a34a" stroke-width="3"/>
      <rect x="17" y="68" width="110" height="17" fill="#fef2f2"/><line x1="43" y1="76" x2="89" y2="76" stroke="#dc2626" stroke-width="3"/>
      <rect x="17" y="96" width="110" height="17" fill="#ecfdf5"/><line x1="43" y1="104" x2="83" y2="104" stroke="#16a34a" stroke-width="3"/>
      <text x="22" y="52" style="font:800 14px -apple-system,BlinkMacSystemFont,'Segoe UI',sans-serif;fill:#16a34a">+</text>
      <text x="22" y="80" style="font:800 14px -apple-system,BlinkMacSystemFont,'Segoe UI',sans-serif;fill:#dc2626">-</text>
      <text x="22" y="108" style="font:800 14px -apple-system,BlinkMacSystemFont,'Segoe UI',sans-serif;fill:#16a34a">+</text>
      <path d="M106 92 L146 104 L138 151 C125 146 115 137 111 122 Z" fill="#0b72cf"/>
      <path d="M119 121 L130 132 L148 109" fill="none" stroke="#fff" stroke-width="6" stroke-linecap="round" stroke-linejoin="round"/>
    </g>
    <text class="body" x="86" y="257" text-anchor="middle">CI, Copilot, diff,</text>
    <text class="body" x="86" y="281" text-anchor="middle">spec compliance</text>
    <line class="divider" x1="10" y1="332" x2="162" y2="332"/>
    <g transform="translate(14 352)">
      <circle cx="11" cy="0" r="8" fill="#0b72cf"/><path d="M7 -1 L10 3 L16 -5" fill="none" stroke="#fff" stroke-width="3"/>
      <text class="small" x="30" y="4">CI pipeline green</text>
      <circle cx="11" cy="36" r="8" fill="#0b72cf"/><path d="M7 35 L10 39 L16 31" fill="none" stroke="#fff" stroke-width="3"/>
      <text class="small" x="30" y="40">Spec compliance</text><text class="small" x="30" y="59">checked</text>
      <circle cx="11" cy="88" r="8" fill="#0b72cf"/><path d="M7 87 L10 91 L16 83" fill="none" stroke="#fff" stroke-width="3"/>
      <text class="small" x="30" y="92">Diff and changes</text><text class="small" x="30" y="111">reviewed</text>
      <circle cx="11" cy="140" r="8" fill="#0b72cf"/><path d="M7 139 L10 143 L16 135" fill="none" stroke="#fff" stroke-width="3"/>
      <text class="small" x="30" y="144">Evidence attached</text>
    </g>
    <rect x="13" y="523" width="146" height="35" rx="7" fill="#eff6ff" stroke="#0b72cf"/>
    <text class="status" x="86" y="546" fill="#004fb5">REVIEW-READY</text>
  </g>

  <path class="arrow" d="M1044 395 L1084 395" marker-end="url(#arrow)"/>

  <g id="stage-6" transform="translate(1088 242)">
    <rect class="card c6" width="186" height="578" rx="7" filter="url(#softShadow)"/>
    <circle cx="93" cy="-9" r="22" fill="#dc2626"/><text class="n" x="93" y="1" text-anchor="middle">6</text>
    <text class="head" x="93" y="42" fill="#dc2626">Human PR</text>
    <text class="head-small" x="93" y="69" fill="#dc2626">decision</text>
    <text class="head-small" x="93" y="96" fill="#dc2626">on GitHub</text>
    <g transform="translate(45 112)">
      <circle cx="48" cy="48" r="48" fill="#111827"/>
      <circle cx="48" cy="44" r="27" fill="#fff"/>
      <path d="M27 34 L23 17 L39 26 Z" fill="#fff"/>
      <path d="M69 34 L73 17 L57 26 Z" fill="#fff"/>
      <rect x="28" y="66" width="13" height="32" rx="6" fill="#fff"/>
      <rect x="55" y="66" width="13" height="32" rx="6" fill="#fff"/>
    </g>
    <text class="body" x="93" y="257" text-anchor="middle">Merge, request</text>
    <text class="body" x="93" y="281" text-anchor="middle">changes, clarification,</text>
    <text class="body" x="93" y="305" text-anchor="middle">abandon</text>
    <line class="divider" x1="12" y1="332" x2="174" y2="332"/>
    <g transform="translate(14 352)">
      <circle cx="11" cy="0" r="8" fill="#16a34a"/><path d="M7 -1 L10 3 L16 -5" fill="none" stroke="#fff" stroke-width="3"/>
      <text class="small" x="30" y="4">Merge, accepted</text>
      <circle cx="11" cy="34" r="8" fill="#d97706"/><text x="11" y="39" text-anchor="middle" style="font:800 14px -apple-system,BlinkMacSystemFont,'Segoe UI',sans-serif;fill:#fff">!</text>
      <text class="small" x="30" y="38">Request changes</text><text class="small" x="30" y="57">send back</text>
      <circle cx="11" cy="86" r="8" fill="#0b72cf"/><text x="11" y="91" text-anchor="middle" style="font:800 14px -apple-system,BlinkMacSystemFont,'Segoe UI',sans-serif;fill:#fff">i</text>
      <text class="small" x="30" y="90">Clarification</text><text class="small" x="30" y="109">needed</text>
      <circle cx="11" cy="138" r="8" fill="#dc2626"/><path d="M7 134 L15 142 M15 134 L7 142" stroke="#fff" stroke-width="3"/>
      <text class="small" x="30" y="142">Abandon, reject</text>
    </g>
    <rect x="14" y="523" width="158" height="35" rx="7" fill="#fef2f2" stroke="#dc2626"/>
    <text class="status" x="93" y="546" fill="#dc2626">DECISION: HUMAN</text>
  </g>

  <path class="arrow" d="M1268 395 L1300 395" marker-end="url(#arrow)"/>
  <path class="dash-arrow" d="M1284 300 L1306 300" marker-end="url(#dashArrow)"/>
  <path class="dash-arrow" d="M1304 117 L1304 200 L1389 200 L1389 226" marker-end="url(#dashArrow)"/>
  <rect x="1158" y="112" width="240" height="28" rx="4" fill="#fff" stroke="#334155"/>
  <text class="tiny" x="1278" y="131" text-anchor="middle">Stage 12 only after human merge decision</text>

  <g id="stage-7" transform="translate(1306 242)">
    <rect class="card c7" width="172" height="578" rx="7" filter="url(#softShadow)"/>
    <circle cx="86" cy="-9" r="22" fill="#16a34a"/><text class="n" x="86" y="1" text-anchor="middle">7</text>
    <text class="head" x="86" y="46" fill="#087334">Stage 12</text>
    <text class="head" x="86" y="75" fill="#087334">closure</text>
    <g transform="translate(33 111)">
      <circle cx="53" cy="53" r="53" fill="#16a34a"/>
      <circle cx="53" cy="53" r="47" fill="#22c55e" opacity=".45"/>
      <path d="M26 54 L47 78 L82 31" fill="none" stroke="#fff" stroke-width="14" stroke-linecap="round" stroke-linejoin="round"/>
    </g>
    <text class="body" x="86" y="257" text-anchor="middle">Issue closure,</text>
    <text class="body" x="86" y="281" text-anchor="middle">Project Done,</text>
    <text class="body" x="86" y="305" text-anchor="middle">Inbox, knowledge sync</text>
    <line class="divider" x1="10" y1="332" x2="162" y2="332"/>
    <g transform="translate(14 352)">
      <circle cx="11" cy="0" r="8" fill="#16a34a"/><path d="M7 -1 L10 3 L16 -5" fill="none" stroke="#fff" stroke-width="3"/>
      <text class="small" x="30" y="4">Issue closed</text>
      <circle cx="11" cy="32" r="8" fill="#16a34a"/><path d="M7 31 L10 35 L16 27" fill="none" stroke="#fff" stroke-width="3"/>
      <text class="small" x="30" y="36">Project: Done</text>
      <circle cx="11" cy="64" r="8" fill="#16a34a"/><path d="M7 63 L10 67 L16 59" fill="none" stroke="#fff" stroke-width="3"/>
      <text class="small" x="30" y="68">Inbox updated</text>
      <circle cx="11" cy="96" r="8" fill="#16a34a"/><path d="M7 95 L10 99 L16 91" fill="none" stroke="#fff" stroke-width="3"/>
      <text class="small" x="30" y="100">Knowledge sync</text><text class="small" x="30" y="119">documented</text>
      <circle cx="11" cy="148" r="8" fill="#16a34a"/><path d="M7 147 L10 151 L16 143" fill="none" stroke="#fff" stroke-width="3"/>
      <text class="small" x="30" y="152">Retro lesson</text>
    </g>
    <rect x="13" y="523" width="146" height="35" rx="7" fill="#ecfdf5" stroke="#16a34a"/>
    <text class="status" x="86" y="546" fill="#087334">CLOSED</text>
  </g>

  <g id="developer-tasks" transform="translate(1510 142)">
    <rect x="0" y="0" width="260" height="712" rx="8" fill="#fff" stroke="#0b72cf" filter="url(#softShadow)"/>
    <rect x="0" y="0" width="260" height="56" rx="8" fill="#1769c2"/>
    <path d="M0 48 H260 V56 H0 Z" fill="#1769c2"/>
    <text class="side-head" x="26" y="37">Developer Tasks</text>
    <g transform="translate(16 102)">
      <rect x="0" y="0" width="26" height="30" rx="4" fill="#eff6ff" stroke="#0b72cf" stroke-width="3"/>
      <path d="M7 14 L13 21 L22 7" fill="none" stroke="#0b72cf" stroke-width="3"/>
      <circle cx="58" cy="13" r="17" fill="none" stroke="#334155" stroke-width="3"/>
      <line x1="70" y1="26" x2="88" y2="48" stroke="#334155" stroke-width="6" stroke-linecap="round"/>
      <text class="side-text" x="104" y="10">Check</text><text class="side-text" x="104" y="32">context</text>
    </g>
    <line class="divider" x1="12" y1="176" x2="248" y2="176"/>
    <g transform="translate(16 202)">
      <rect x="0" y="0" width="26" height="30" rx="4" fill="#eff6ff" stroke="#0b72cf" stroke-width="3"/>
      <path d="M7 14 L13 21 L22 7" fill="none" stroke="#0b72cf" stroke-width="3"/>
      <path d="M49 0 H70 L86 16 V48 H49 Z" fill="#f8fafc" stroke="#334155" stroke-width="2"/>
      <path d="M70 0 V16 H86" fill="none" stroke="#334155" stroke-width="2"/>
      <line x1="57" y1="23" x2="76" y2="23" stroke="#64748b" stroke-width="2"/>
      <line x1="57" y1="34" x2="78" y2="34" stroke="#64748b" stroke-width="2"/>
      <text class="side-text" x="104" y="10">Respect spec</text><text class="side-text" x="104" y="32">boundaries</text>
    </g>
    <line class="divider" x1="12" y1="280" x2="248" y2="280"/>
    <g transform="translate(16 306)">
      <rect x="0" y="0" width="26" height="30" rx="4" fill="#eff6ff" stroke="#0b72cf" stroke-width="3"/>
      <path d="M7 14 L13 21 L22 7" fill="none" stroke="#0b72cf" stroke-width="3"/>
      <path d="M68 0 V18 L92 55 H38 L62 18 V0" fill="#f8fafc" stroke="#334155" stroke-width="2"/>
      <line x1="57" y1="0" x2="74" y2="0" stroke="#334155" stroke-width="4"/>
      <circle cx="64" cy="36" r="4" fill="#0b72cf"/><circle cx="75" cy="46" r="3" fill="#0b72cf"/>
      <text class="side-text" x="104" y="10">Record tests</text><text class="side-text" x="104" y="32">and evidence</text>
    </g>
    <line class="divider" x1="12" y1="384" x2="248" y2="384"/>
    <g transform="translate(16 410)">
      <rect x="0" y="0" width="26" height="30" rx="4" fill="#eff6ff" stroke="#0b72cf" stroke-width="3"/>
      <path d="M7 14 L13 21 L22 7" fill="none" stroke="#0b72cf" stroke-width="3"/>
      <path d="M45 0 H88 Q100 0 100 12 V38 Q100 50 88 50 H67 L50 64 V50 H45 Q33 50 33 38 V12 Q33 0 45 0 Z" fill="#f8fafc" stroke="#334155" stroke-width="2"/>
      <line x1="48" y1="18" x2="86" y2="18" stroke="#64748b" stroke-width="2"/>
      <line x1="48" y1="31" x2="77" y2="31" stroke="#64748b" stroke-width="2"/>
      <text class="side-text" x="104" y="10">Answer PR</text><text class="side-text" x="104" y="32">review</text>
    </g>
    <line class="divider" x1="12" y1="488" x2="248" y2="488"/>
    <g transform="translate(16 514)">
      <rect x="0" y="0" width="26" height="30" rx="4" fill="#eff6ff" stroke="#0b72cf" stroke-width="3"/>
      <path d="M7 14 L13 21 L22 7" fill="none" stroke="#0b72cf" stroke-width="3"/>
      <circle cx="65" cy="24" r="25" fill="#111827"/>
      <circle cx="65" cy="22" r="14" fill="#fff"/>
      <path d="M51 17 L49 8 L58 14 Z" fill="#fff"/><path d="M79 17 L81 8 L72 14 Z" fill="#fff"/>
      <text class="side-text" x="104" y="10">GitHub merge</text><text class="side-text" x="104" y="32">decision</text>
    </g>
    <line class="divider" x1="12" y1="592" x2="248" y2="592"/>
    <g transform="translate(16 618)">
      <rect x="0" y="0" width="26" height="30" rx="4" fill="#eff6ff" stroke="#0b72cf" stroke-width="3"/>
      <path d="M7 14 L13 21 L22 7" fill="none" stroke="#0b72cf" stroke-width="3"/>
      <circle cx="64" cy="22" r="24" fill="none" stroke="#16a34a" stroke-width="4"/>
      <path d="M50 22 L61 34 L79 10" fill="none" stroke="#16a34a" stroke-width="5" stroke-linecap="round" stroke-linejoin="round"/>
      <text class="side-text" x="104" y="10">Verify</text><text class="side-text" x="104" y="32">closure</text>
    </g>
  </g>

  <g id="balance" transform="translate(30 854)">
    <rect width="1455" height="128" rx="8" fill="#fff" stroke="#0b2c63" stroke-width="2"/>
    <rect x="536" y="-14" width="385" height="34" fill="#fbfcff"/>
    <text class="bottom-title" x="728" y="9">AI and Human Balance</text>
    <g transform="translate(54 24)">
      <circle cx="40" cy="40" r="36" fill="#eff6ff" stroke="#0b72cf" stroke-width="2"/>
      <rect x="24" y="29" width="32" height="29" rx="6" fill="#0b72cf"/>
      <circle cx="40" cy="16" r="7" fill="#0b72cf"/><line x1="40" y1="22" x2="40" y2="29" stroke="#0b72cf" stroke-width="5"/>
      <circle cx="33" cy="43" r="4" fill="#fff"/><circle cx="47" cy="43" r="4" fill="#fff"/>
      <line x1="13" y1="40" x2="24" y2="40" stroke="#0b72cf" stroke-width="5"/><line x1="56" y1="40" x2="67" y2="40" stroke="#0b72cf" stroke-width="5"/>
      <text class="bottom-bold" x="95" y="37" fill="#08245c">AI:</text>
      <text class="bottom-body" x="140" y="37">prepares, implements,</text>
      <text class="bottom-body" x="140" y="72">verifies, recommends</text>
    </g>
    <line x1="472" y1="26" x2="472" y2="102" stroke="#94a3b8" stroke-width="1.5"/>
    <g transform="translate(532 24)">
      <circle cx="40" cy="40" r="36" fill="#ecfdf5" stroke="#16a34a" stroke-width="2"/>
      <circle cx="40" cy="27" r="11" fill="#16a34a"/>
      <path d="M16 68 C21 48 28 42 40 42 C52 42 59 48 64 68 Z" fill="#16a34a"/>
      <text class="bottom-bold" x="95" y="37" fill="#087334">Human:</text>
      <text class="bottom-body" x="225" y="37">scope, cost,</text>
      <text class="bottom-body" x="225" y="72">acceptance, merge</text>
    </g>
    <line x1="1010" y1="26" x2="1010" y2="102" stroke="#94a3b8" stroke-width="1.5"/>
    <g transform="translate(1050 24)">
      <circle cx="40" cy="40" r="36" fill="#faf5ff" stroke="#6d28d9" stroke-width="2"/>
      <path d="M40 13 L68 26 V45 C64 63 53 74 40 80 C27 74 16 63 12 45 V26 Z" fill="#6d28d9"/>
      <path d="M28 43 L38 54 L55 32" fill="none" stroke="#fff" stroke-width="5" stroke-linecap="round" stroke-linejoin="round"/>
      <text class="bottom-bold" x="95" y="37" fill="#0f172a">Closure:</text>
      <text class="bottom-body" x="230" y="37">only after</text>
      <text class="bottom-body" x="230" y="72">verified merge</text>
    </g>
  </g>
</svg>
