<svg xmlns="http://www.w3.org/2000/svg" width="1800" height="1260" viewBox="0 0 1800 1260">
  <defs>
    <style>
      .bg { fill: #f8fafc; }
      .title { font: 750 48px -apple-system, BlinkMacSystemFont, "Segoe UI", sans-serif; fill: #111827; }
      .subtitle { font: 400 22px -apple-system, BlinkMacSystemFont, "Segoe UI", sans-serif; fill: #4b5563; }
      .section { font: 750 24px -apple-system, BlinkMacSystemFont, "Segoe UI", sans-serif; fill: #111827; }
      .label { font: 750 19px -apple-system, BlinkMacSystemFont, "Segoe UI", sans-serif; fill: #111827; }
      .body { font: 500 15px -apple-system, BlinkMacSystemFont, "Segoe UI", sans-serif; fill: #374151; }
      .small { font: 650 13px -apple-system, BlinkMacSystemFont, "Segoe UI", sans-serif; fill: #475569; }
      .tiny { font: 600 12px -apple-system, BlinkMacSystemFont, "Segoe UI", sans-serif; fill: #64748b; }
      .badge { font: 800 12px -apple-system, BlinkMacSystemFont, "Segoe UI", sans-serif; fill: #ffffff; letter-spacing: 0; }
      .white { fill: #ffffff; }
      .line { stroke: #64748b; stroke-width: 3; fill: none; }
      .thin { stroke: #94a3b8; stroke-width: 2; fill: none; }
      .dash { stroke-dasharray: 8 8; }
      .manual { fill: #fff7ed; stroke: #f59e0b; }
      .agent { fill: #eff6ff; stroke: #2563eb; }
      .action { fill: #ecfdf5; stroke: #059669; }
      .source { fill: #f8fafc; stroke: #475569; }
      .risk { fill: #fef2f2; stroke: #dc2626; }
      .card { stroke-width: 2.5; rx: 14; }
      .pillManual { fill: #f59e0b; }
      .pillAgent { fill: #2563eb; }
      .pillAction { fill: #059669; }
      .pillSource { fill: #475569; }
      .pillRisk { fill: #dc2626; }
      .darkText { font: 750 18px -apple-system, BlinkMacSystemFont, "Segoe UI", sans-serif; fill: #ffffff; }
    </style>
    <marker id="arrow" markerWidth="12" markerHeight="12" refX="10" refY="6" orient="auto" markerUnits="strokeWidth">
      <path d="M2,2 L10,6 L2,10 Z" fill="#64748b"/>
    </marker>
    <marker id="arrowGreen" markerWidth="12" markerHeight="12" refX="10" refY="6" orient="auto" markerUnits="strokeWidth">
      <path d="M2,2 L10,6 L2,10 Z" fill="#059669"/>
    </marker>
  </defs>

  <rect class="bg" x="0" y="0" width="1800" height="1260"/>

  <text class="title" x="64" y="70">DUUMBI Manual vs Automated Workflow Map</text>
  <text class="subtitle" x="66" y="106">Runbook stages with the current GitHub Actions request automations overlaid.</text>
  <text class="tiny" x="66" y="132">Sources: DUUMBI - Agentic Development Runbook; .github/workflows/human-acceptance-request.yml, spec-review-request.yml, technical-spec-review-request.yml</text>

  <rect x="64" y="160" width="1672" height="86" rx="20" fill="#ffffff" stroke="#e2e8f0" stroke-width="2"/>
  <text class="section" x="92" y="195">Legend</text>
  <rect class="card agent" x="210" y="178" width="250" height="44"/>
  <rect class="pillAgent" x="226" y="190" width="72" height="20" rx="10"/>
  <text class="badge" x="242" y="205">AGENT</text>
  <text class="body" x="312" y="206">Codex or Oz work</text>
  <rect class="card action" x="500" y="178" width="320" height="44"/>
  <rect class="pillAction" x="516" y="190" width="72" height="20" rx="10"/>
  <text class="badge" x="534" y="205">ACTION</text>
  <text class="body" x="602" y="206">Workflow notification request</text>
  <rect class="card manual" x="860" y="178" width="290" height="44"/>
  <rect class="pillManual" x="876" y="190" width="84" height="20" rx="10"/>
  <text class="badge" x="894" y="205">MANUAL</text>
  <text class="body" x="976" y="206">Human decision or merge</text>
  <rect class="card risk" x="1190" y="178" width="310" height="44"/>
  <rect class="pillRisk" x="1206" y="190" width="92" height="20" rx="10"/>
  <text class="badge" x="1224" y="205">ESCALATE</text>
  <text class="body" x="1314" y="206">Explicit resource approval</text>
  <rect class="card source" x="1540" y="178" width="158" height="44"/>
  <rect class="pillSource" x="1556" y="190" width="70" height="20" rx="10"/>
  <text class="badge" x="1574" y="205">STATE</text>
  <text class="body" x="1642" y="206">GitHub</text>

  <rect x="64" y="284" width="1672" height="540" rx="24" fill="#ffffff" stroke="#e2e8f0" stroke-width="2"/>
  <text class="section" x="92" y="322">Runbook Flow</text>
  <text class="body" x="92" y="350">Most stages are agent-executed after a human starts or approves them. The hard gates are the human decisions, merge, and resource threshold approvals.</text>

  <rect class="card agent" x="92" y="384" width="370" height="104"/>
  <rect class="pillAgent" x="112" y="404" width="70" height="22" rx="11"/>
  <text class="badge" x="129" y="420">S1</text>
  <text class="label" x="112" y="452">Slack Intake</text>
  <text class="body" x="112" y="474">Oz captures Slack input into Inbox.</text>

  <rect class="card agent" x="502" y="384" width="370" height="104"/>
  <rect class="pillAgent" x="522" y="404" width="70" height="22" rx="11"/>
  <text class="badge" x="539" y="420">S2</text>
  <text class="label" x="522" y="452">Codex Intake</text>
  <text class="body" x="522" y="474">Codex captures or refines local ideas.</text>

  <rect class="card agent" x="912" y="384" width="370" height="104"/>
  <rect class="pillAgent" x="932" y="404" width="70" height="22" rx="11"/>
  <text class="badge" x="949" y="420">S3</text>
  <text class="label" x="932" y="452">GitHub Intake</text>
  <text class="body" x="932" y="474">Agent classifies existing issues or ideas.</text>

  <rect class="card agent" x="1322" y="384" width="370" height="104"/>
  <rect class="pillAgent" x="1342" y="404" width="70" height="22" rx="11"/>
  <text class="badge" x="1359" y="420">S4</text>
  <text class="label" x="1342" y="452">Triage</text>
  <text class="body" x="1342" y="474">Creates or routes issue to human acceptance.</text>

  <path class="line" d="M462 436 L502 436" marker-end="url(#arrow)"/>
  <path class="line" d="M872 436 L912 436" marker-end="url(#arrow)"/>
  <path class="line" d="M1282 436 L1322 436" marker-end="url(#arrow)"/>

  <rect class="card manual" x="92" y="536" width="370" height="116"/>
  <rect class="pillManual" x="112" y="556" width="98" height="22" rx="11"/>
  <text class="badge" x="132" y="572">S5 GATE</text>
  <text class="label" x="112" y="604">Human Acceptance</text>
  <text class="body" x="112" y="626">Human accepts, rejects, defers, duplicates,</text>
  <text class="body" x="112" y="646">or asks for clarification.</text>

  <rect class="card agent" x="502" y="536" width="370" height="116"/>
  <rect class="pillAgent" x="522" y="556" width="70" height="22" rx="11"/>
  <text class="badge" x="539" y="572">S6</text>
  <text class="label" x="522" y="604">Product Spec Draft</text>
  <text class="body" x="522" y="626">Agent drafts PRODUCT.md or issue spec</text>
  <text class="body" x="522" y="646">with BDD scenarios.</text>

  <rect class="card manual" x="912" y="536" width="370" height="116"/>
  <rect class="pillManual" x="932" y="556" width="98" height="22" rx="11"/>
  <text class="badge" x="952" y="572">S7 GATE</text>
  <text class="label" x="932" y="604">Product Spec Review</text>
  <text class="body" x="932" y="626">Human approves or requests revision before</text>
  <text class="body" x="932" y="646">technical planning starts.</text>

  <rect class="card agent" x="1322" y="536" width="370" height="116"/>
  <rect class="pillAgent" x="1342" y="556" width="70" height="22" rx="11"/>
  <text class="badge" x="1359" y="572">S8</text>
  <text class="label" x="1342" y="604">Technical Spec Draft</text>
  <text class="body" x="1342" y="626">Agent writes implementation contract,</text>
  <text class="body" x="1342" y="646">test mapping, and live E2E plan.</text>

  <path class="line" d="M1507 488 C1507 514, 277 506, 277 536" marker-end="url(#arrow)"/>
  <path class="line" d="M462 594 L502 594" marker-end="url(#arrow)"/>
  <path class="line" d="M872 594 L912 594" marker-end="url(#arrow)"/>
  <path class="line" d="M1282 594 L1322 594" marker-end="url(#arrow)"/>

  <rect class="card manual" x="92" y="692" width="300" height="92"/>
  <rect class="pillManual" x="112" y="710" width="98" height="22" rx="11"/>
  <text class="badge" x="132" y="726">S9 GATE</text>
  <text class="label" x="112" y="752">Technical Spec Review</text>
  <text class="body" x="112" y="772">Human approval before build.</text>

  <rect class="card agent" x="422" y="692" width="310" height="92"/>
  <rect class="pillAgent" x="442" y="710" width="118" height="22" rx="11"/>
  <text class="badge" x="460" y="726">S10 AGENT</text>
  <text class="label" x="442" y="752">Implementation</text>
  <text class="body" x="442" y="772">Ralph cycles inside approved bounds.</text>

  <rect class="card agent" x="762" y="692" width="300" height="92"/>
  <rect class="pillAgent" x="782" y="710" width="70" height="22" rx="11"/>
  <text class="badge" x="799" y="726">S11</text>
  <text class="label" x="782" y="752">Review Artifact</text>
  <text class="body" x="782" y="772">Agent supports merge readiness.</text>

  <rect class="card manual" x="1092" y="692" width="280" height="92"/>
  <rect class="pillManual" x="1112" y="710" width="108" height="22" rx="11"/>
  <text class="badge" x="1130" y="726">MERGE</text>
  <text class="label" x="1112" y="752">Human Merge</text>
  <text class="body" x="1112" y="772">PR is merged or returned.</text>

  <rect class="card agent" x="1402" y="692" width="290" height="92"/>
  <rect class="pillAgent" x="1422" y="710" width="70" height="22" rx="11"/>
  <text class="badge" x="1439" y="726">S12</text>
  <text class="label" x="1422" y="752">Closure</text>
  <text class="body" x="1422" y="772">Evidence, Done, and sync decision.</text>

  <path class="line" d="M1507 652 C1507 672, 242 666, 242 692" marker-end="url(#arrow)"/>
  <path class="line" d="M392 738 L422 738" marker-end="url(#arrow)"/>
  <path class="line" d="M732 738 L762 738" marker-end="url(#arrow)"/>
  <path class="line" d="M1062 738 L1092 738" marker-end="url(#arrow)"/>
  <path class="line" d="M1372 738 L1402 738" marker-end="url(#arrow)"/>

  <rect x="64" y="860" width="1672" height="254" rx="24" fill="#f8fafc" stroke="#cbd5e1" stroke-width="2"/>
  <text class="section" x="92" y="898">Current Request Automations</text>
  <text class="body" x="92" y="926">These workflows automate the request channel around human gates. They do not approve, reject, merge, write specs, or implement changes.</text>

  <rect class="card action" x="92" y="956" width="500" height="116"/>
  <rect class="pillAction" x="112" y="976" width="86" height="22" rx="11"/>
  <text class="badge" x="129" y="992">ACTION</text>
  <text class="label" x="112" y="1022">human-acceptance-request.yml</text>
  <text class="body" x="112" y="1046">Maps to Stage 5. Trigger: needs-human-review label,</text>
  <text class="body" x="112" y="1066">hourly sweep, or dispatch; then Slack + marker comment.</text>

  <rect class="card action" x="650" y="956" width="500" height="116"/>
  <rect class="pillAction" x="670" y="976" width="86" height="22" rx="11"/>
  <text class="badge" x="687" y="992">ACTION</text>
  <text class="label" x="670" y="1022">spec-review-request.yml</text>
  <text class="body" x="670" y="1046">Maps to Stage 7. Trigger: spec-review label, hourly sweep,</text>
  <text class="body" x="670" y="1066">or dispatch; finds Stage 6 artifact, Slack + marker comment.</text>

  <rect class="card action" x="1208" y="956" width="500" height="116"/>
  <rect class="pillAction" x="1228" y="976" width="86" height="22" rx="11"/>
  <text class="badge" x="1245" y="992">ACTION</text>
  <text class="label" x="1228" y="1022">technical-spec-review-request.yml</text>
  <text class="body" x="1228" y="1046">Maps to Stage 9. Trigger: technical-spec-review label,</text>
  <text class="body" x="1228" y="1066">hourly sweep, or dispatch; Stage 8 artifacts + Slack request.</text>

  <rect x="64" y="1152" width="1672" height="74" rx="20" fill="#111827"/>
  <text class="darkText" x="92" y="1186">Boundary rule:</text>
  <text class="darkText" x="232" y="1186">Automation may request and route a review, but only a human can make Stage 5, Stage 7, Stage 9, and merge decisions.</text>
  <text class="darkText" x="92" y="1214">Resource rule:</text>
  <text class="darkText" x="226" y="1214">Ralph cycles can proceed autonomously only while they stay inside the approved technical spec and below the resource thresholds.</text>

  <rect class="card risk" x="542" y="792" width="590" height="32"/>
  <rect class="pillRisk" x="560" y="798" width="92" height="20" rx="10"/>
  <text class="badge" x="578" y="813">ESCALATE</text>
  <text class="body" x="668" y="814">Manual approval is required if scope, risk, cost, or call limits are exceeded.</text>
</svg>
